<svg id="Layer_1" data-name="Layer 1" xmlns="http://www.w3.org/2000/svg" xmlns:xlink="http://www.w3.org/1999/xlink" viewBox="0 0 366.43 717.14"><defs><style>.cls-1{fill:url(#linear-gradient);}.cls-2,.cls-3,.cls-9{fill:none;}.cls-2,.cls-3{stroke:#000;stroke-miterlimit:10;}.cls-3{stroke-width:2px;}.cls-4{fill:url(#linear-gradient-2);}.cls-5{fill:#fff;}.cls-6{fill:url(#linear-gradient-3);}.cls-7{fill:url(#linear-gradient-4);}.cls-8{fill:url(#linear-gradient-5);}.cls-10{fill:url(#linear-gradient-6);}.cls-11{fill:url(#linear-gradient-7);}.cls-12{fill:#71b25f;opacity:0.51;}</style><linearGradient id="linear-gradient" x1="124.02" y1="358.57" x2="338.11" y2="358.57" gradientUnits="userSpaceOnUse"><stop offset="0" stop-color="#5b93b0"/><stop offset="1" stop-color="#539d73"/></linearGradient><linearGradient id="linear-gradient-2" x1="174.85" y1="648.23" x2="245.88" y2="648.23" xlink:href="#linear-gradient"/><linearGradient id="linear-gradient-3" x1="247.92" y1="521.62" x2="343.18" y2="521.62" xlink:href="#linear-gradient"/><linearGradient id="linear-gradient-4" x1="299.17" y1="345.89" x2="366.43" y2="345.89" xlink:href="#linear-gradient"/><linearGradient id="linear-gradient-5" x1="237.93" y1="170.15" x2="333.18" y2="170.15" xlink:href="#linear-gradient"/><linearGradient id="linear-gradient-6" x1="171.52" y1="45.43" x2="242.55" y2="45.43" xlink:href="#linear-gradient"/><linearGradient id="linear-gradient-7" x1="6.61" y1="344.86" x2="189.85" y2="344.86" xlink:href="#linear-gradient"/></defs><title>Untitled-2</title><path class="cls-1" d="M338.11,361A428.7,428.7,0,0,1,304.2,528.9,429.86,429.86,0,0,1,211.74,666a433,433,0,0,1-61.46,51.1H131.75C249.67,642.35,328.11,510.64,328.11,361,328.11,208,246.24,73.86,124,0h19.13a432.4,432.4,0,0,1,68.59,55.88A430,430,0,0,1,304.2,193,428.65,428.65,0,0,1,338.11,361Z"/><circle class="cls-2" cx="60.47" cy="480.35" r="9.99"/><circle cx="135.43" cy="628.61" r="5.55"/><circle class="cls-2" cx="19.38" cy="62.78" r="9.99"/><circle class="cls-2" cx="69.35" cy="168.28" r="9.99"/><circle class="cls-2" cx="248.15" cy="279.34" r="4.44"/><circle class="cls-2" cx="4.94" cy="608.06" r="4.44"/><line class="cls-3" x1="194.29" y1="67.78" x2="106.56" y2="268.79"/><line class="cls-3" x1="259.81" y1="193.27" x2="148.76" y2="314.32"/><line class="cls-3" x1="304.24" y1="347.64" x2="170.97" y2="347.64"/><line class="cls-3" x1="264.26" y1="497.56" x2="149.87" y2="400.94"/><line class="cls-3" x1="202.85" y1="617.2" x2="106.56" y2="423.15"/><line class="cls-2" x1="140.43" y1="630.27" x2="180.41" y2="640.27"/><circle cx="132.1" cy="62.22" r="5.55"/><line class="cls-2" x1="136.73" y1="60.68" x2="175.23" y2="46"/><circle class="cls-4" cx="210.37" cy="648.23" r="35.52"/><path class="cls-5" d="M211.08,654.19s7-2.49,10.78,0v6.63h-10.3l-.48-1.89Z"/><path class="cls-5" d="M209.54,639.74s1.9-7.46,2.49-7.57a4.94,4.94,0,0,1,2.6.11,3.58,3.58,0,0,0,1.66.48,21.29,21.29,0,0,0,3.91-.71c.36-.24.83-.48,1.18,0a28.68,28.68,0,0,1,1.19,4c.35,1.19.83,3.56,1,3.91s-2.14.71-2.61.71-5.92-.12-7.1,0a17.55,17.55,0,0,1-3.56,0A.82.82,0,0,1,209.54,639.74Z"/><path class="cls-5" d="M226.37,655.94l-.15-.12a15.23,15.23,0,0,0-4.09-2.35l-.12-.05a15.25,15.25,0,0,0-4.88-1,.71.71,0,0,0-.58-.3.68.68,0,0,0-.57.3,15.25,15.25,0,0,0-4.89,1l-.12.05a15.38,15.38,0,0,0-4.09,2.35l-.15.12a15.5,15.5,0,0,0-5.68,12,.71.71,0,1,0,1.42,0,14.06,14.06,0,0,1,4.07-9.89v9.73a.78.78,0,0,0,0,.16.71.71,0,0,0,1.38,0,.78.78,0,0,0,0-.16v-11a14.49,14.49,0,0,1,2.61-1.6v6a.71.71,0,0,0,.71.71h10.54a.71.71,0,0,0,.71-.71v-6a14.15,14.15,0,0,1,2.61,1.6v11a.78.78,0,0,0,0,.16.71.71,0,0,0,.69.55.72.72,0,0,0,.7-.55.81.81,0,0,0,0-.16V658a14,14,0,0,1,4.07,9.89.71.71,0,0,0,1.42,0,15.47,15.47,0,0,0-5.68-12ZM212,660.45v-5.84a13.69,13.69,0,0,1,3.85-.74v1.83a.71.71,0,0,0,1.42,0v-1.83a13.69,13.69,0,0,1,3.85.74v5.84Zm0,0"/><path class="cls-5" d="M203.11,637.69V624.82a.71.71,0,1,0-1.42,0V637h-2.87V624.82a.71.71,0,0,0-1.42,0V637h-2.87V624.82a.71.71,0,1,0-1.42,0V637h-2.87V624.82a.71.71,0,1,0-1.42,0v12.87a3.68,3.68,0,0,0,3.67,3.67h2.77v26.57a.71.71,0,0,0,1.42,0V641.36h2.76a3.68,3.68,0,0,0,3.67-3.67Zm-12.75.71h11.21a2.25,2.25,0,0,1-2.13,1.54h-6.95a2.26,2.26,0,0,1-2.13-1.54Zm0,0"/><path class="cls-5" d="M205.31,641.36h3.18a7,7,0,0,0,0,.79,8.11,8.11,0,0,0,16.21,0c0-.26,0-.53,0-.79h3.15a.71.71,0,0,0,0-1.42h-3.42l-1.64-6.85a2.48,2.48,0,0,0-3.14-1.8l-2.94.88-2.95-.88a2.5,2.5,0,0,0-3.16,1.78l-1.76,6.87h-3.45a.71.71,0,1,0,0,1.42Zm7.11-8.62a1.05,1.05,0,0,1,.85-.09l3.15.94a.72.72,0,0,0,.41,0l3.15-.94a1,1,0,0,1,.84.09,1.08,1.08,0,0,1,.5.68l1.57,6.52H210.23l1.67-6.52a1.11,1.11,0,0,1,.52-.68Zm10.82,9.41a6.69,6.69,0,0,1-13.37,0,6.84,6.84,0,0,1,0-.79h13.27a7,7,0,0,1,.05.79Zm0,0"/><path class="cls-5" d="M221.82,663.29H216a.71.71,0,1,0,0,1.42h5.8a.71.71,0,0,0,0-1.42Zm0,0"/><path class="cls-5" d="M213.18,663.29h-1.9a.71.71,0,1,0,0,1.42h1.9a.71.71,0,1,0,0-1.42Zm0,0"/><circle class="cls-6" cx="295.55" cy="521.62" r="47.63"/><path class="cls-5" d="M325.48,518.9l-7.54,0a7.24,7.24,0,0,0-4.38-2.89l-5.39-1.15a8.27,8.27,0,0,0,3.62-6.87l0-4.68a8.26,8.26,0,1,0-16.52.08l0,4.69a8.3,8.3,0,0,0,3.68,6.83l-5.37,1.21c-.23.05-.45.11-.68.18l-.05-10.13a1.23,1.23,0,0,0-1.23-1.22l-8.33.05a1.21,1.21,0,0,0-1.21,1.23,1.23,1.23,0,0,0,1.23,1.22l7.1,0,.09,17.14-8.33,0,0-6.12a3.68,3.68,0,0,0-7.35,0l0,6.12-8.33.05-.09-17.14,7.1,0a1.23,1.23,0,0,0,1.22-1.23,1.22,1.22,0,0,0-1.23-1.22l-8.33,0a1.22,1.22,0,0,0-1.21,1.23l.1,19.59a1.22,1.22,0,0,0,1.23,1.22l9.55,0v2.33h-.12a3.8,3.8,0,0,0-3.78,3.81v.62l-5.64,0a1.21,1.21,0,0,0-1.21,1.23l0,4.89a1.23,1.23,0,0,0,1.23,1.22l60.24-.32a1.22,1.22,0,0,0,1.22-1.23l-.1-19.59a1.22,1.22,0,0,0-1.23-1.21Zm-7.37,14.73-7,0,0-2.44,13.23-.07v2.44Zm6.19-4.93-13.22.07v-2.45l13.22-.07Zm0-4.9-13.23.07v-2.45l6.23,0h0l7,0Zm-26.59-20.38a5.81,5.81,0,0,1,11.6-.52l-2.85-1.65a1.23,1.23,0,0,0-1.56.27,6.47,6.47,0,0,1-5,2.36h-2.22Zm0,2.92h2.22a8.88,8.88,0,0,0,6.13-2.48l3.28,1.9V508a5.82,5.82,0,1,1-11.63.06Zm7.78,9.76-1.9,5.19-2-5.18a8.41,8.41,0,0,0,2,.23,8.54,8.54,0,0,0,1.91-.24ZM291.73,527a1.21,1.21,0,0,0,1.21-1.23l0-6.81a4.54,4.54,0,0,1,1.2-.44l5.35-1.21,3,7.88a1.22,1.22,0,0,0,1.15.79,1.21,1.21,0,0,0,1.14-.8l2.91-7.91,5.4,1.15a4.74,4.74,0,0,1,1.33.5l-4.58,0a1.21,1.21,0,0,0-1.21,1.23l.07,13.47-18.22.09,0-6.73Zm-3.78,0,0,6.74h-1.86v-.62a3.81,3.81,0,0,0-3.82-3.77h-.12v-2.33Zm-10.72-8.51a1.23,1.23,0,0,1,1.22-1.23,1.21,1.21,0,0,1,1.23,1.21l.06,10.9h-2.45Zm-3.84,14.71a1.35,1.35,0,0,1,1.34-1.35l7.59,0a1.34,1.34,0,0,1,1.36,1.34v.61l-10.28.05Zm51,5.24-57.79.31v-2.45l57.79-.31Zm0,0"/><path class="cls-5" d="M277.52,505.43a1.25,1.25,0,0,0-.35.86,1.23,1.23,0,0,0,.36.87,1.28,1.28,0,0,0,.87.35,1.2,1.2,0,0,0,.86-.36,1.24,1.24,0,0,0,.36-.87,1.25,1.25,0,0,0-1.23-1.22,1.28,1.28,0,0,0-.87.37Zm0,0"/><circle class="cls-7" cx="332.8" cy="345.89" r="33.63"/><path class="cls-5" d="M353.82,362.81l-5.59-5.59a4.43,4.43,0,0,0-2.32-1.23V344.71l.55,0a6.59,6.59,0,0,0,6.41-8,.89.89,0,0,0-.66-.66,6.55,6.55,0,0,0-6.11,1.77c-.07.06-.13.13-.19.19v-4.55a5.42,5.42,0,0,0-.41-8.88.87.87,0,0,0-.93,0,5.42,5.42,0,0,0-.4,8.88v1.14a5.83,5.83,0,0,0-5.43-1.55.86.86,0,0,0-.66.65,5.89,5.89,0,0,0,5.72,7.18l.37,0v3.5c-.12-.13-.23-.26-.36-.38a7.14,7.14,0,0,0-6.57-1.94,2.79,2.79,0,0,0-2.76-2.39h-5.59l-2.61-3.58a5,5,0,0,0-1.34-1.26,4.23,4.23,0,0,0,2.58-3.89v-2.08h1.35a.87.87,0,0,0,0-1.74h-1.11v-1.39a2.49,2.49,0,0,0-2.48-2.49h-4.11a2.5,2.5,0,0,0-2.49,2.49v1.39h-1.1a.87.87,0,0,0,0,1.74h1.54v2.08a4.2,4.2,0,0,0,1.64,3.34A5,5,0,0,0,317.3,339v9.48a5.51,5.51,0,0,0,2.76,4.77v5.59h-7.82a2.74,2.74,0,0,0,0,5.48h1.12a.87.87,0,0,0,0-1.74h-1.12a1,1,0,0,1,0-2h8.69a.87.87,0,0,0,.87-.87v-5.82a5.58,5.58,0,0,0,1,.09h1.72v5.63a3,3,0,0,1-3,3h-1.23a.87.87,0,0,0,0,1.74h1.23a4.71,4.71,0,0,0,4.71-4.71V354h3.19v7.6a2.74,2.74,0,0,0,5.48,0v-9.44a4.71,4.71,0,0,0-4.71-4.71H326v-2.23a1.09,1.09,0,0,0,.26,0h8.18a2.76,2.76,0,0,0,1.85-.71,7.18,7.18,0,0,0,7.15,6.94,5.32,5.32,0,0,0,.69,0V356a4.47,4.47,0,0,0-2.31,1.23l-5.56,5.56a.87.87,0,1,0,1.23,1.23l5.57-5.56a2.74,2.74,0,0,1,3.89,0l5.6,5.59a.85.85,0,0,0,.61.25.87.87,0,0,0,.62-1.48Zm-28-31.91a2.46,2.46,0,1,1-4.92,0v-2.08h4.92Zm-5.36-3.82v-1.39a.75.75,0,0,1,.75-.74h4.11a.74.74,0,0,1,.74.74v1.39Zm9.81,22.06a3,3,0,0,1,3,3v9.44a1,1,0,0,1-2,0v-8.47a.87.87,0,0,0-.87-.87h-7.52a3.77,3.77,0,0,1-3.7-3.07Zm4.25-5.67h-7.79L325,341.56a.88.88,0,0,0-1.23-.07.87.87,0,0,0-.07,1.23l.59.67v4H319V339a3.22,3.22,0,0,1,5.83-1.9l2.87,3.94a.86.86,0,0,0,.7.36h6a1,1,0,0,1,0,2.1Zm9.69,5.62a5.46,5.46,0,0,1,0,.57,5.42,5.42,0,0,1-6-6,5.42,5.42,0,0,1,6.06,5.33ZM347.33,339a4.77,4.77,0,0,1,3.93-1.39,4.84,4.84,0,0,1-5.33,5.32c0-.14,0-.29,0-.44v-.17A4.8,4.8,0,0,1,347.33,339Zm-3.18.07a4.14,4.14,0,0,1-4.46-4.46,4.12,4.12,0,0,1,4.46,4.46Zm.89-7.2a3.67,3.67,0,0,1,0-5.52,3.67,3.67,0,0,1,0,5.52Z"/><circle class="cls-8" cx="285.56" cy="170.15" r="47.63"/><path class="cls-5" d="M302.61,185a3.23,3.23,0,1,0,3.22,3.22,3.22,3.22,0,0,0-3.22-3.22Zm0,4.3a1.08,1.08,0,1,1,1.07-1.08,1.08,1.08,0,0,1-1.07,1.08Zm0,0"/><path class="cls-5" d="M267.18,185a3.23,3.23,0,1,0,3.22,3.22,3.22,3.22,0,0,0-3.22-3.22Zm0,4.3a1.08,1.08,0,1,1,1.07-1.08,1.07,1.07,0,0,1-1.07,1.08Zm0,0"/><path class="cls-5" d="M319.22,171.62l-6.48-15.75a3.24,3.24,0,0,0-3-2H297.24v-4.29a3.22,3.22,0,0,0-3.22-3.22H258.59a3.22,3.22,0,0,0-3.22,3.22v30.06a3.21,3.21,0,0,0,1.16,2.45,4.29,4.29,0,0,0,3.14,7.21h.08a7.51,7.51,0,0,0,14.86,0h20.57a7.51,7.51,0,0,0,14.86,0h6.52a3.22,3.22,0,0,0,3.22-3.22V174.48A7.59,7.59,0,0,0,319.22,171.62ZM303.68,156h6.08a1.07,1.07,0,0,1,1,.66l6.48,15.75a4.92,4.92,0,0,1,.24.77H304.75a1.08,1.08,0,0,1-1.07-1.08Zm-46.16-6.44a1.07,1.07,0,0,1,1.07-1.08H294a1.07,1.07,0,0,1,1.07,1.08v31.13h-36.5a1.07,1.07,0,0,1-1.07-1.07Zm2.23,37.57h-.08a2.12,2.12,0,0,1-1.52-.63,2.14,2.14,0,0,1,1.52-3.66h2.26A7.51,7.51,0,0,0,259.75,187.16Zm7.43,6.44a5.37,5.37,0,1,1,5.37-5.36A5.37,5.37,0,0,1,267.18,193.6Zm28-6.44H274.61a7.45,7.45,0,0,0-2.18-4.29h24.93A7.45,7.45,0,0,0,295.18,187.16Zm7.43,6.44a5.37,5.37,0,1,1,5.37-5.36A5.36,5.36,0,0,1,302.61,193.6Zm15-16.1h-1.08a1.08,1.08,0,0,0,0,2.15h1.08v2.14h-1.08a1.08,1.08,0,0,0,0,2.15h1.08v2.15a1.07,1.07,0,0,1-1.08,1.07H310a7.52,7.52,0,0,0-7.43-6.44h-5.37V156h4.29v16.1a3.22,3.22,0,0,0,3.22,3.22h12.89Z"/><rect class="cls-9" x="255.37" y="146.23" width="64.41" height="49.65"/><path class="cls-5" d="M260.74,152.81H264a1.08,1.08,0,0,0,0-2.15h-3.22a1.08,1.08,0,0,0,0,2.15Zm0,0"/><path class="cls-5" d="M268.25,152.81h23.62a1.08,1.08,0,1,0,0-2.15H268.25a1.08,1.08,0,0,0,0,2.15Zm0,0"/><circle class="cls-10" cx="207.03" cy="45.43" r="35.52"/><path class="cls-5" d="M194.26,28.8a4.63,4.63,0,1,0-4.63,4.63,4.63,4.63,0,0,0,4.63-4.63Zm-7.71,0a3.09,3.09,0,1,1,3.08,3.09,3.08,3.08,0,0,1-3.08-3.09Zm0,0"/><path class="cls-5" d="M223.45,26.27l1.09-1.09,1.09,1.09-1.09,1.09Zm0,0"/><path class="cls-5" d="M221.27,28.45l1.09-1.09,1.09,1.09-1.09,1.09Zm0,0"/><path class="cls-5" d="M219.15,30.57l1-1,1.09,1.09-1,1Zm0,0"/><path class="cls-5" d="M227.41,53.47h-4.28a19.25,19.25,0,0,0-1.4-19.33c.58-.41,1.15-.83,1.7-1.28l4.75,4.74L229.83,36,227.52,29l.24-.25A4,4,0,0,0,229,25.9a4.05,4.05,0,0,0-4-4,4,4,0,0,0-2.86,1.19l-.25.24L214.86,21l-1.65,1.65L218,27.38c-.45.55-.87,1.12-1.28,1.7a19.09,19.09,0,0,0-10.85-3.36,19.32,19.32,0,0,0-8.56,2,7.71,7.71,0,0,0-15.34,1.08V29a7.67,7.67,0,0,0,1.3,4.28l4.14,6.2a19.27,19.27,0,0,0-.81,5.5,19,19,0,0,0,1.29,6.94h-.52a2.31,2.31,0,0,0-.77,4.48V58.1h-4.63v2.58a8.23,8.23,0,0,0,8.21,8.21h8.54a8.25,8.25,0,0,0,7.38-4.63A19.14,19.14,0,0,0,212.76,63v3.6a2.32,2.32,0,0,0,2.31,2.32h12.34a2.32,2.32,0,0,0,2.31-2.32V55.78a2.32,2.32,0,0,0-2.31-2.31ZM218.93,55h4.62v1.54h-4.62Zm-3.86-1.54h-2.3a44.4,44.4,0,0,0,.75-7.71h10a17.75,17.75,0,0,1-2.14,7.71Zm-8.5,9.09,0-1.38h-3.38l-2.45-4.92A2.29,2.29,0,0,0,201.82,55h9c-1,4.15-2.66,6.9-4.28,7.55Zm-4.75-9.09A2.3,2.3,0,0,0,200.19,52a44.62,44.62,0,0,1-.52-6.24H212a42.8,42.8,0,0,1-.78,7.71Zm-13.7-9.25a18,18,0,0,1,.45-3.36,2.18,2.18,0,0,0,1.06.28,2.2,2.2,0,0,0,1.84-1l2.43-3.64h5a45.4,45.4,0,0,0-.75,7.71Zm12.33-7.71H211.2a43.12,43.12,0,0,1,.77,7.71h-12.3a41.92,41.92,0,0,1,.78-7.71Zm5.37-9.25c1.37,0,2.78,1.55,3.91,4.25l-.59.59,1,.5c.26.74.5,1.53.71,2.37H200.79c1.21-4.79,3.19-7.71,5-7.71ZM214.36,33l-2.61-1.31.47-.47,2.71.67c-.2.37-.38.74-.57,1.11Zm-.65,1.4v0a1.78,1.78,0,0,0-.14.55h-1.12c-.11-.48-.24-.95-.37-1.41Zm9.81,9.84h-10a46.55,46.55,0,0,0-.75-7.71H214a2,2,0,0,0,1.59.77,2.05,2.05,0,0,0,.81-.16l0,0,2.28,4.57,2.61-2.61-1-4,.13-.08a17.51,17.51,0,0,1,3.07,9.23Zm-4.58-8.34.67,2.71-.47.47-1.31-2.61,1.11-.57Zm9-.68-3.34-3.35c.39-.34.77-.7,1.14-1.07l.55-.55Zm-3-11.79a2.51,2.51,0,0,1,2.5,2.49,2.46,2.46,0,0,1-.74,1.77l-2,2a28.28,28.28,0,0,1-8.88,6,.53.53,0,0,1-.71-.47.65.65,0,0,1,0-.2,28.28,28.28,0,0,1,6-8.88l2-2h0a2.49,2.49,0,0,1,1.77-.73Zm-9.3-.55,5,1.65-.55.55c-.37.37-.72.75-1.07,1.14Zm.13,7.63-4-1-.84.85a12.5,12.5,0,0,0-1.67-2.74,17.6,17.6,0,0,1,6.58,2.76.57.57,0,0,1-.08.13Zm-18.43-1a17.86,17.86,0,0,1,5.15-1.86A18.46,18.46,0,0,0,199.2,35h-4.27l1.12-1.68a7.76,7.76,0,0,0,1.26-3.85ZM183.47,29V28.8a6.17,6.17,0,1,1,12.33,0V29a6.09,6.09,0,0,1-1,3.42l-4.57,6.87a.7.7,0,0,1-1.12,0l-4.57-6.87a6.09,6.09,0,0,1-1-3.42Zm4.64,16.75h10a45.35,45.35,0,0,0,.49,6.17h-9.11a17.45,17.45,0,0,1-1.4-6.17Zm-.79,7.71h12.33a.77.77,0,1,1,0,1.54H187.32a.77.77,0,0,1,0-1.54Zm.77,3.08h11.09l2.31,4.63H190.88l-1.54-3.08h-1.25Zm10.58,10.8h-8.54a6.68,6.68,0,0,1-6.66-6.67v-1h4.91l1.55,3.08H205a6.73,6.73,0,0,1-6.35,4.63Zm10.51-4.95A18.26,18.26,0,0,0,212.44,55h.46a2.19,2.19,0,0,0-.14.77V61.3a17.43,17.43,0,0,1-3.58,1.1Zm19,4.17a.78.78,0,0,1-.77.78H215.07a.78.78,0,0,1-.77-.78V55.78a.78.78,0,0,1,.77-.77h2.31V58.1h7.71V55h2.32a.78.78,0,0,1,.77.77Zm0,0"/><rect class="cls-5" x="225.09" y="64.26" width="1.54" height="1.54"/><rect class="cls-5" x="222.01" y="64.26" width="1.54" height="1.54"/><rect class="cls-5" x="194.26" y="58.1" width="1.54" height="1.54"/><rect class="cls-5" x="197.34" y="58.1" width="1.54" height="1.54"/><rect class="cls-5" x="191.17" y="58.1" width="1.54" height="1.54"/><rect class="cls-5" x="201.97" y="47.3" width="1.54" height="1.54"/><rect class="cls-5" x="208.13" y="47.3" width="1.54" height="1.54"/><rect class="cls-5" x="205.05" y="47.3" width="1.54" height="1.54"/><rect class="cls-5" x="208.13" y="41.14" width="1.54" height="1.54"/><rect class="cls-5" x="205.05" y="41.14" width="1.54" height="1.54"/><rect class="cls-5" x="201.97" y="41.14" width="1.54" height="1.54"/><circle class="cls-11" cx="98.23" cy="344.86" r="91.62"/><circle class="cls-12" cx="98.23" cy="344.86" r="58.96"/><circle class="cls-12" cx="98.23" cy="344.86" r="40.82"/></svg>